# xmcd CD database file
#
# Track frame offsets:
#	150
#	23754
#	47288
#	68187
#	88406
#	102715
#	122540
#	139867
#	164516
#	187570
#	209695
#	233003
#	256784
#	279845
#	295851
#
# Disc length: 4218 seconds
#
# Revision: 0
# Processed by: cddbd v1.5.2PL0 Copyright (c) Steve Scherf et al.
# Submitted via: CDex 1.70beta2
#
DISCID=d010780f
DTITLE=Paolo Fresu 5et - Songlines
DYEAR=2010
DGENRE=Jazz
TTITLE0=Eternina
TTITLE1=Casta Rumba
TTITLE2=Airsong
TTITLE3=Monitango
TTITLE4=Medley - Ninna Nanna Per Andrea
TTITLE5=Medley - Inno Alla Vita
TTITLE6=The Right Way
TTITLE7=The Songlines
TTITLE8=Lirico
TTITLE9=Wayne
TTITLE10=Nuvole Notturne
TTITLE11=Nucleo
TTITLE12=Aldo E Il Mare
TTITLE13=Blue Water
TTITLE14=Saturn
EXTD=YEAR: 2010
EXTT0=
EXTT1=
EXTT2=
EXTT3=
EXTT4=
EXTT5=
EXTT6=
EXTT7=
EXTT8=
EXTT9=
EXTT10=
EXTT11=
EXTT12=
EXTT13=
EXTT14=
PLAYORDER=
